<svg version="1.1" viewBox="0.0 0.0 1081.4645669291338 139.1548556430446" fill="none" stroke="none" stroke-linecap="square" stroke-miterlimit="10" xmlns:xlink="http://www.w3.org/1999/xlink" xmlns="http://www.w3.org/2000/svg"><clipPath id="p.0"><path d="m0 0l1081.4646 0l0 139.15486l-1081.4646 0l0 -139.15486z" clip-rule="nonzero"/></clipPath><g clip-path="url(#p.0)"><path fill="#000000" fill-opacity="0.0" d="m0 0l1081.4646 0l0 139.15486l-1081.4646 0z" fill-rule="evenodd"/><path fill="#000000" d="m0.15223098 0.005249344l32.717922 0l0 139.31464l-32.717922 0z" fill-rule="evenodd"/><path fill="#000000" d="m0.15223098 34.04743l0 -34.04218l92.233986 0l0 34.04218z" fill-rule="evenodd"/><path fill="#000000" d="m0.15223098 86.68366l0 -34.042183l74.379166 0l0 34.042183z" fill-rule="evenodd"/><path fill="#000000" d="m110.055374 0.005249344l32.717926 0l0 139.31464l-32.717926 0z" fill-rule="evenodd"/><path fill="#000000" d="m110.055374 34.04743l0 -34.04218l92.23399 0l0 34.04218z" fill-rule="evenodd"/><path fill="#000000" d="m110.055374 86.68366l0 -34.042183l92.23399 0l0 34.042183z" fill-rule="evenodd"/><path fill="#000000" d="m169.57144 0.005249344l32.717926 0l0 86.66185l-32.717926 0z" fill-rule="evenodd"/><path fill="#000000" d="m202.28937 139.30333l-26.099884 -52.619667l-32.747818 0l26.099884 52.619667z" fill-rule="evenodd"/><path fill="#000000" d="m219.95853 0.005249344l32.717926 0l0 139.31464l-32.717926 0z" fill-rule="evenodd"/><path fill="#000000" d="m219.95853 34.04743l0 -34.04218l92.23398 0l0 34.04218z" fill-rule="evenodd"/><path fill="#000000" d="m219.95853 86.68366l0 -34.042183l74.37915 0l0 34.042183z" fill-rule="evenodd"/><path fill="#000000" d="m219.95853 139.31989l0 -34.042175l92.23398 0l0 34.042175z" fill-rule="evenodd"/><path fill="#000000" d="m329.86166 0.005249344l32.717926 0l0 139.31464l-32.717926 0z" fill-rule="evenodd"/><path fill="#000000" d="m329.86166 34.04743l0 -34.04218l92.23398 0l0 34.04218z" fill-rule="evenodd"/><path fill="#000000" d="m329.86166 86.68366l0 -34.042183l74.37918 0l0 34.042183z" fill-rule="evenodd"/><path fill="#000000" d="m329.86166 139.31989l0 -34.042175l92.23398 0l0 34.042175z" fill-rule="evenodd"/><path fill="#000000" d="m439.76483 0.005249344l32.717896 0l0 139.31464l-32.717896 0z" fill-rule="evenodd"/><path fill="#000000" d="m439.76483 34.04743l0 -34.04218l92.23395 0l0 34.04218z" fill-rule="evenodd"/><path fill="#000000" d="m439.76483 86.68366l0 -34.042183l92.23395 0l0 34.042183z" fill-rule="evenodd"/><path fill="#000000" d="m499.28088 0.005249344l32.717896 0l0 86.66185l-32.717896 0z" fill-rule="evenodd"/><path fill="#000000" d="m549.66797 0.005249344l32.717896 0l0 139.31464l-32.717896 0z" fill-rule="evenodd"/><path fill="#000000" d="m549.66797 139.31989l0 -34.042175l92.23401 0l0 34.042175z" fill-rule="evenodd"/><path fill="#000000" d="m659.5711 0.005249344l32.717957 0l0 139.31464l-32.717957 0z" fill-rule="evenodd"/><path fill="#000000" d="m659.5711 34.04743l0 -34.04218l92.23401 0l0 34.04218z" fill-rule="evenodd"/><path fill="#000000" d="m659.5711 86.68366l0 -34.042183l92.23401 0l0 34.042183z" fill-rule="evenodd"/><path fill="#000000" d="m719.08716 0.005249344l32.717957 0l0 139.31464l-32.717957 0z" fill-rule="evenodd"/><path fill="#000000" d="m828.9903 0.005249344l32.717957 0l0 139.31464l-32.717957 0z" fill-rule="evenodd"/><path fill="#000000" d="m769.47424 86.68366l0 -34.042183l92.23401 0l0 34.042183z" fill-rule="evenodd"/><path fill="#000000" d="m769.47424 139.31989l0 -34.042175l92.23401 0l0 34.042175z" fill-rule="evenodd"/><path fill="#000000" d="m769.47424 0.005249344l32.717957 0l0 86.66185l-32.717957 0z" fill-rule="evenodd"/><path fill="#000000" d="m879.3774 0.005249344l32.717957 0l0 139.31464l-32.717957 0z" fill-rule="evenodd"/><path fill="#000000" d="m879.3774 34.04743l0 -34.04218l92.23401 0l0 34.04218z" fill-rule="evenodd"/><path fill="#000000" d="m879.3774 86.68366l0 -34.042183l74.37921 0l0 34.042183z" fill-rule="evenodd"/><path fill="#000000" d="m879.3774 139.31989l0 -34.042175l92.23401 0l0 34.042175z" fill-rule="evenodd"/><path fill="#000000" d="m989.2806 0.005249344l32.717896 0l0 139.31464l-32.717896 0z" fill-rule="evenodd"/><path fill="#000000" d="m989.2806 34.04743l0 -34.04218l92.23395 0l0 34.04218z" fill-rule="evenodd"/><path fill="#000000" d="m989.2806 86.68366l0 -34.042183l92.23395 0l0 34.042183z" fill-rule="evenodd"/><path fill="#000000" d="m1048.7966 0.005249344l32.717896 0l0 86.66185l-32.717896 0z" fill-rule="evenodd"/><path fill="#000000" d="m1081.5145 139.30333l-26.099854 -52.619667l-32.747864 0l26.099915 52.619667z" fill-rule="evenodd"/><path fill="#ff4400" d="m0 0l32.377953 0l0 132.50394l-32.377953 0z" fill-rule="evenodd"/><path fill="#ff4400" d="m0 32.377953l0 -32.377953l91.27559 0l0 32.377953z" fill-rule="evenodd"/><path fill="#ff4400" d="m0 82.44095l0 -32.377956l73.6063 0l0 32.377956z" fill-rule="evenodd"/><path fill="#b1ff00" d="m108.761154 0l32.37796 0l0 132.50394l-32.37796 0z" fill-rule="evenodd"/><path fill="#b1ff00" d="m108.761154 32.377953l0 -32.377953l91.27559 0l0 32.377953z" fill-rule="evenodd"/><path fill="#b1ff00" d="m108.761154 82.44095l0 -32.377956l91.27559 0l0 32.377956z" fill-rule="evenodd"/><path fill="#b1ff00" d="m167.6588 0l32.377945 0l0 82.42519l-32.377945 0z" fill-rule="evenodd"/><path fill="#b1ff00" d="m200.03674 132.48819l-24.823929 -50.04724l-33.412292 0l24.823944 50.04724z" fill-rule="evenodd"/><path fill="#008cff" d="m217.52231 0l32.37796 0l0 132.50394l-32.37796 0z" fill-rule="evenodd"/><path fill="#008cff" d="m217.52231 32.377953l0 -32.377953l91.275604 0l0 32.377953z" fill-rule="evenodd"/><path fill="#008cff" d="m217.52231 82.44095l0 -32.377956l73.60629 0l0 32.377956z" fill-rule="evenodd"/><path fill="#008cff" d="m217.52231 132.50394l0 -32.377953l91.275604 0l0 32.377953z" fill-rule="evenodd"/><path fill="#008cff" d="m326.28348 0l32.37793 0l0 132.50394l-32.37793 0z" fill-rule="evenodd"/><path fill="#008cff" d="m326.28348 32.377953l0 -32.377953l91.27557 0l0 32.377953z" fill-rule="evenodd"/><path fill="#008cff" d="m326.28348 82.44095l0 -32.377956l73.60629 0l0 32.377956z" fill-rule="evenodd"/><path fill="#008cff" d="m326.28348 132.50394l0 -32.377953l91.27557 0l0 32.377953z" fill-rule="evenodd"/><path fill="#ff4400" d="m435.04462 0l32.37796 0l0 132.50394l-32.37796 0z" fill-rule="evenodd"/><path fill="#ff4400" d="m435.04462 32.377953l0 -32.377953l91.27557 0l0 32.377953z" fill-rule="evenodd"/><path fill="#ff4400" d="m435.04462 82.44095l0 -32.377956l91.27557 0l0 32.377956z" fill-rule="evenodd"/><path fill="#ff4400" d="m493.94226 0l32.37793 0l0 82.42519l-32.37793 0z" fill-rule="evenodd"/><path fill="#b1ff00" d="m543.8058 0l32.37793 0l0 132.50394l-32.37793 0z" fill-rule="evenodd"/><path fill="#b1ff00" d="m543.8058 132.50394l0 -32.377953l91.27557 0l0 32.377953z" fill-rule="evenodd"/><path fill="#008cff" d="m652.56696 0l32.37793 0l0 132.50394l-32.37793 0z" fill-rule="evenodd"/><path fill="#008cff" d="m652.56696 32.377953l0 -32.377953l91.27557 0l0 32.377953z" fill-rule="evenodd"/><path fill="#008cff" d="m652.56696 82.44095l0 -32.377956l91.27557 0l0 32.377956z" fill-rule="evenodd"/><path fill="#008cff" d="m711.46454 0l32.37799 0l0 132.50394l-32.37799 0z" fill-rule="evenodd"/><path fill="#ff4400" d="m820.2257 0l32.37799 0l0 132.50394l-32.37799 0z" fill-rule="evenodd"/><path fill="#ff4400" d="m761.32806 82.44095l0 -32.377956l91.275635 0l0 32.377956z" fill-rule="evenodd"/><path fill="#ff4400" d="m761.32806 132.50394l0 -32.377953l91.275635 0l0 32.377953z" fill-rule="evenodd"/><path fill="#ff4400" d="m761.32806 0l32.37799 0l0 82.42519l-32.37799 0z" fill-rule="evenodd"/><path fill="#008cff" d="m870.08923 0l32.37793 0l0 132.50394l-32.37793 0z" fill-rule="evenodd"/><path fill="#008cff" d="m870.08923 32.377953l0 -32.377953l91.27557 0l0 32.377953z" fill-rule="evenodd"/><path fill="#008cff" d="m870.08923 82.44095l0 -32.377956l73.60632 0l0 32.377956z" fill-rule="evenodd"/><path fill="#008cff" d="m870.08923 132.50394l0 -32.377953l91.27557 0l0 32.377953z" fill-rule="evenodd"/><path fill="#b1ff00" d="m978.8504 0l32.37793 0l0 132.50394l-32.37793 0z" fill-rule="evenodd"/><path fill="#b1ff00" d="m978.8504 32.377953l0 -32.377953l91.27557 0l0 32.377953z" fill-rule="evenodd"/><path fill="#b1ff00" d="m978.8504 82.44095l0 -32.377956l91.27557 0l0 32.377956z" fill-rule="evenodd"/><path fill="#b1ff00" d="m1037.748 0l32.37793 0l0 82.42519l-32.37793 0z" fill-rule="evenodd"/><path fill="#b1ff00" d="m1070.126 132.48819l-24.823975 -50.04724l-33.41223 0l24.823975 50.04724z" fill-rule="evenodd"/></g></svg>